<?xml version="1.0" encoding="UTF-8" standalone="no"?>
<!-- Created with Inkscape (http://www.inkscape.org/) -->

<svg
   xmlns:dc="http://purl.org/dc/elements/1.1/"
   xmlns:cc="http://creativecommons.org/ns#"
   xmlns:rdf="http://www.w3.org/1999/02/22-rdf-syntax-ns#"
   xmlns:svg="http://www.w3.org/2000/svg"
   xmlns="http://www.w3.org/2000/svg"
   xmlns:xlink="http://www.w3.org/1999/xlink"
   xmlns:sodipodi="http://sodipodi.sourceforge.net/DTD/sodipodi-0.dtd"
   xmlns:inkscape="http://www.inkscape.org/namespaces/inkscape"
   width="32"
   height="32"
   id="svg2"
   version="1.1"
   inkscape:version="0.48.2 r9819"
   sodipodi:docname="database.svg"
   inkscape:export-filename="/home/calle/src/kquerybrowser/res/kquerybrowser.png"
   inkscape:export-xdpi="180"
   inkscape:export-ydpi="180">
  <defs
     id="defs4">
    <linearGradient
       id="linearGradient4108">
      <stop
         style="stop-color:#cccccc;stop-opacity:1;"
         offset="0"
         id="stop4110" />
      <stop
         style="stop-color:#7f7f7f;stop-opacity:1;"
         offset="1"
         id="stop4112" />
    </linearGradient>
    <linearGradient
       id="linearGradient4022">
      <stop
         id="stop4024"
         offset="0"
         style="stop-color:#929292;stop-opacity:1;" />
      <stop
         style="stop-color:#afafaf;stop-opacity:1;"
         offset="0.15938149"
         id="stop4026" />
      <stop
         id="stop4028"
         offset="0.65735579"
         style="stop-color:#afafaf;stop-opacity:1;" />
      <stop
         id="stop4030"
         offset="1"
         style="stop-color:#373737;stop-opacity:1;" />
    </linearGradient>
    <linearGradient
       id="linearGradient3998">
      <stop
         style="stop-color:#cccccc;stop-opacity:1;"
         offset="0"
         id="stop4000" />
      <stop
         id="stop4006"
         offset="0.15938149"
         style="stop-color:#ffffff;stop-opacity:1;" />
      <stop
         style="stop-color:#ffffff;stop-opacity:1;"
         offset="0.84485579"
         id="stop4008" />
      <stop
         style="stop-color:#d4d4d4;stop-opacity:1;"
         offset="1"
         id="stop4002" />
    </linearGradient>
    <linearGradient
       id="linearGradient3963">
      <stop
         id="stop3965"
         offset="0"
         style="stop-color:#a1a2a1;stop-opacity:1;" />
      <stop
         style="stop-color:#cacbca;stop-opacity:1;"
         offset="0.03793035"
         id="stop3967" />
      <stop
         style="stop-color:#f3f4f2;stop-opacity:1;"
         offset="0.06772234"
         id="stop3969" />
      <stop
         id="stop3971"
         offset="0.11654603"
         style="stop-color:#d8dbd5;stop-opacity:1;" />
      <stop
         id="stop3973"
         offset="0.13734066"
         style="stop-color:#cccccc;stop-opacity:1;" />
      <stop
         id="stop3975"
         offset="0.37082103"
         style="stop-color:#fbfbfb;stop-opacity:1;" />
      <stop
         style="stop-color:#727571;stop-opacity:1;"
         offset="0.74689817"
         id="stop3977" />
      <stop
         style="stop-color:#a0a2a3;stop-opacity:0.95294118;"
         offset="0.93429089"
         id="stop3988" />
      <stop
         id="stop3981"
         offset="1"
         style="stop-color:#72757b;stop-opacity:0.94117647;" />
    </linearGradient>
    <linearGradient
       id="linearGradient3925">
      <stop
         style="stop-color:#c7c7c7;stop-opacity:1;"
         offset="0"
         id="stop3927" />
      <stop
         style="stop-color:#777777;stop-opacity:1;"
         offset="1"
         id="stop3929" />
    </linearGradient>
    <linearGradient
       id="linearGradient3997">
      <stop
         style="stop-color:#dee0dc;stop-opacity:1;"
         offset="0"
         id="stop3999" />
      <stop
         style="stop-color:#949692;stop-opacity:1;"
         offset="1"
         id="stop4001" />
    </linearGradient>
    <linearGradient
       id="linearGradient3981">
      <stop
         style="stop-color:#a1a2a1;stop-opacity:1;"
         offset="0"
         id="stop3983" />
      <stop
         id="stop3993"
         offset="0.02283779"
         style="stop-color:#cacbca;stop-opacity:1;" />
      <stop
         id="stop3989"
         offset="0.17983849"
         style="stop-color:#f3f4f2;stop-opacity:1;" />
      <stop
         style="stop-color:#d8dbd5;stop-opacity:1;"
         offset="0.25453514"
         id="stop3951" />
      <stop
         style="stop-color:#cccccc;stop-opacity:1;"
         offset="0.32923177"
         id="stop3897" />
      <stop
         style="stop-color:#fbfbfb;stop-opacity:1;"
         offset="0.47862503"
         id="stop3991" />
      <stop
         id="stop3995"
         offset="0.97544265"
         style="stop-color:#989a97;stop-opacity:1;" />
      <stop
         style="stop-color:#aeb0b0;stop-opacity:0.96862745;"
         offset="0.98772132"
         id="stop3953" />
      <stop
         id="stop3984"
         offset="0.99386066"
         style="stop-color:#434446;stop-opacity:0.95294118;" />
      <stop
         style="stop-color:#414244;stop-opacity:0.94509804;"
         offset="0.99693036"
         id="stop3986" />
      <stop
         style="stop-color:#989a9f;stop-opacity:0.94117647;"
         offset="1"
         id="stop3985" />
    </linearGradient>
    <linearGradient
       id="linearGradient3902">
      <stop
         id="stop3904"
         offset="0"
         style="stop-color:#aaaaaa;stop-opacity:1;" />
      <stop
         style="stop-color:#dbdbdb;stop-opacity:1;"
         offset="0.14118414"
         id="stop3906" />
      <stop
         style="stop-color:#efefef;stop-opacity:1;"
         offset="0.36148751"
         id="stop3908" />
      <stop
         id="stop3916"
         offset="0.48908842"
         style="stop-color:#efefef;stop-opacity:1;" />
      <stop
         id="stop3910"
         offset="0.69640136"
         style="stop-color:#c2c2c2;stop-opacity:1;" />
      <stop
         id="stop3912"
         offset="1"
         style="stop-color:#787878;stop-opacity:1;" />
    </linearGradient>
    <linearGradient
       id="linearGradient3881">
      <stop
         id="stop3889"
         offset="0"
         style="stop-color:#505050;stop-opacity:1;" />
      <stop
         id="stop3891"
         offset="1"
         style="stop-color:#505050;stop-opacity:1;" />
    </linearGradient>
    <linearGradient
       id="linearGradient3822">
      <stop
         style="stop-color:#e6e6e6;stop-opacity:1;"
         offset="0"
         id="stop3824" />
      <stop
         style="stop-color:#a0a0a0;stop-opacity:1;"
         offset="1"
         id="stop3826" />
    </linearGradient>
    <linearGradient
       id="linearGradient3799">
      <stop
         style="stop-color:#aaaaaa;stop-opacity:1;"
         offset="0"
         id="stop3801" />
      <stop
         id="stop3830"
         offset="0.15392235"
         style="stop-color:#dbdbdb;stop-opacity:1;" />
      <stop
         style="stop-color:#e5e5e5;stop-opacity:1;"
         offset="0.25272593"
         id="stop3914" />
      <stop
         id="stop3807"
         offset="0.44584203"
         style="stop-color:#dbdbdb;stop-opacity:1;" />
      <stop
         style="stop-color:#c2c2c2;stop-opacity:1;"
         offset="0.76009244"
         id="stop3809" />
      <stop
         style="stop-color:#aaaaaa;stop-opacity:1;"
         offset="1"
         id="stop3803" />
    </linearGradient>
    <radialGradient
       inkscape:collect="always"
       xlink:href="#linearGradient3822"
       id="radialGradient3828"
       cx="11.094446"
       cy="21.172537"
       fx="11.094446"
       fy="21.172537"
       r="15"
       gradientTransform="matrix(1.4403622,-0.04650068,0.053033,0.73008944,-6.008418,-1.6386461)"
       gradientUnits="userSpaceOnUse"
       spreadMethod="pad" />
    <linearGradient
       inkscape:collect="always"
       xlink:href="#linearGradient3799"
       id="linearGradient3897"
       gradientUnits="userSpaceOnUse"
       x1="5.5917517"
       y1="1039.3622"
       x2="26.408248"
       y2="1039.3622"
       gradientTransform="translate(0,-1020.3622)" />
    <linearGradient
       inkscape:collect="always"
       xlink:href="#linearGradient3963"
       id="linearGradient3961"
       gradientUnits="userSpaceOnUse"
       gradientTransform="translate(-4.9999997e-8,0.30335)"
       x1="5.7512663"
       y1="1036.0588"
       x2="26.248734"
       y2="1036.0588" />
    <linearGradient
       inkscape:collect="always"
       xlink:href="#linearGradient3998"
       id="linearGradient4004"
       x1="5.75"
       y1="22.671875"
       x2="26.25"
       y2="22.671875"
       gradientUnits="userSpaceOnUse" />
    <linearGradient
       inkscape:collect="always"
       xlink:href="#linearGradient4022"
       id="linearGradient4020"
       gradientUnits="userSpaceOnUse"
       x1="5.75"
       y1="22.671875"
       x2="26.25"
       y2="22.671875"
       gradientTransform="translate(0,1026.456)" />
    <filter
       inkscape:collect="always"
       id="filter4062"
       x="-0.064611853"
       width="1.1292237"
       y="-0.14543541"
       height="1.2908708">
      <feGaussianBlur
         inkscape:collect="always"
         stdDeviation="0.5207648"
         id="feGaussianBlur4064" />
    </filter>
    <clipPath
       clipPathUnits="userSpaceOnUse"
       id="clipPath4104">
      <path
         style="fill:none;stroke:#000000;stroke-width:0.5;stroke-miterlimit:4;stroke-opacity:1;stroke-dasharray:0.5, 0.5;stroke-dashoffset:0"
         d="m 26.254258,1040.9165 c 0,1.9473 -4.588515,3.5257 -10.248734,3.5257 -5.660219,0 -10.2487334,-1.5784 -10.2487334,-3.5257 0,-1.9473 4.5885144,-3.5258 10.2487334,-3.5258 5.660219,0 10.248734,1.5785 10.248734,3.5258 z"
         id="path4106"
         inkscape:connector-curvature="0" />
    </clipPath>
    <radialGradient
       inkscape:collect="always"
       xlink:href="#linearGradient4108"
       id="radialGradient4116"
       cx="11.320943"
       cy="1045.4127"
       fx="11.320943"
       fy="1045.4127"
       r="10.248734"
       gradientTransform="matrix(1.6259222,0.37469599,-0.20408774,0.88559999,206.26989,112.40384)"
       gradientUnits="userSpaceOnUse" />
    <linearGradient
       inkscape:collect="always"
       xlink:href="#linearGradient3963"
       id="linearGradient4140"
       gradientUnits="userSpaceOnUse"
       gradientTransform="translate(-4.9999997e-8,0.30335)"
       x1="5.7512663"
       y1="1036.0588"
       x2="26.248734"
       y2="1036.0588" />
    <radialGradient
       inkscape:collect="always"
       xlink:href="#linearGradient4108"
       id="radialGradient4142"
       gradientUnits="userSpaceOnUse"
       gradientTransform="matrix(1.6259222,0.37469599,-0.20408774,0.88559999,206.26989,112.40384)"
       cx="11.320943"
       cy="1045.4127"
       fx="11.320943"
       fy="1045.4127"
       r="10.248734" />
    <linearGradient
       inkscape:collect="always"
       xlink:href="#linearGradient3998"
       id="linearGradient4144"
       gradientUnits="userSpaceOnUse"
       x1="5.75"
       y1="22.671875"
       x2="26.25"
       y2="22.671875" />
    <linearGradient
       inkscape:collect="always"
       xlink:href="#linearGradient4022"
       id="linearGradient4146"
       gradientUnits="userSpaceOnUse"
       gradientTransform="translate(0,1026.456)"
       x1="5.75"
       y1="22.671875"
       x2="26.25"
       y2="22.671875" />
    <linearGradient
       inkscape:collect="always"
       xlink:href="#linearGradient3963"
       id="linearGradient4148"
       gradientUnits="userSpaceOnUse"
       gradientTransform="translate(-4.9999997e-8,0.30335)"
       x1="5.7512663"
       y1="1036.0588"
       x2="26.248734"
       y2="1036.0588" />
    <radialGradient
       inkscape:collect="always"
       xlink:href="#linearGradient4108"
       id="radialGradient4150"
       gradientUnits="userSpaceOnUse"
       gradientTransform="matrix(1.6259222,0.37469599,-0.20408774,0.88559999,206.26989,112.40384)"
       cx="11.320943"
       cy="1045.4127"
       fx="11.320943"
       fy="1045.4127"
       r="10.248734" />
    <linearGradient
       inkscape:collect="always"
       xlink:href="#linearGradient3998"
       id="linearGradient4152"
       gradientUnits="userSpaceOnUse"
       x1="5.75"
       y1="22.671875"
       x2="26.25"
       y2="22.671875" />
    <linearGradient
       inkscape:collect="always"
       xlink:href="#linearGradient4022"
       id="linearGradient4154"
       gradientUnits="userSpaceOnUse"
       gradientTransform="translate(0,1026.456)"
       x1="5.75"
       y1="22.671875"
       x2="26.25"
       y2="22.671875" />
    <linearGradient
       inkscape:collect="always"
       xlink:href="#linearGradient4022"
       id="linearGradient4159"
       gradientUnits="userSpaceOnUse"
       gradientTransform="translate(0,1026.456)"
       x1="5.75"
       y1="22.671875"
       x2="26.25"
       y2="22.671875" />
    <linearGradient
       inkscape:collect="always"
       xlink:href="#linearGradient3998"
       id="linearGradient4162"
       gradientUnits="userSpaceOnUse"
       x1="5.75"
       y1="22.671875"
       x2="26.25"
       y2="22.671875"
       gradientTransform="translate(0,1020.3622)" />
    <radialGradient
       inkscape:collect="always"
       xlink:href="#linearGradient4108"
       id="radialGradient4165"
       gradientUnits="userSpaceOnUse"
       gradientTransform="matrix(1.6259222,0.37469599,-0.20408774,0.88559999,206.26989,112.40384)"
       cx="11.320943"
       cy="1045.4127"
       fx="11.320943"
       fy="1045.4127"
       r="10.248734" />
    <linearGradient
       inkscape:collect="always"
       xlink:href="#linearGradient3963"
       id="linearGradient4168"
       gradientUnits="userSpaceOnUse"
       gradientTransform="translate(-4.9999997e-8,0.30335)"
       x1="5.7512663"
       y1="1036.0588"
       x2="26.248734"
       y2="1036.0588" />
    <filter
       inkscape:collect="always"
       id="filter4174"
       x="-0.080641087"
       width="1.1612822"
       y="-0.23440942"
       height="1.4688188">
      <feGaussianBlur
         inkscape:collect="always"
         stdDeviation="0.68872418"
         id="feGaussianBlur4176" />
    </filter>
    <filter
       color-interpolation-filters="sRGB"
       inkscape:collect="always"
       id="filter4174-0"
       x="-0.080641083"
       width="1.1612822"
       y="-0.23440942"
       height="1.4688188">
      <feGaussianBlur
         inkscape:collect="always"
         stdDeviation="0.68872418"
         id="feGaussianBlur4176-1" />
    </filter>
    <linearGradient
       inkscape:collect="always"
       xlink:href="#linearGradient3963"
       id="linearGradient4224"
       gradientUnits="userSpaceOnUse"
       gradientTransform="translate(-4.9999997e-8,0.30335)"
       x1="5.7512663"
       y1="1036.0588"
       x2="26.248734"
       y2="1036.0588" />
    <radialGradient
       inkscape:collect="always"
       xlink:href="#linearGradient4108"
       id="radialGradient4226"
       gradientUnits="userSpaceOnUse"
       gradientTransform="matrix(1.6259222,0.37469599,-0.20408774,0.88559999,206.26989,112.40384)"
       cx="11.320943"
       cy="1045.4127"
       fx="11.320943"
       fy="1045.4127"
       r="10.248734" />
    <linearGradient
       inkscape:collect="always"
       xlink:href="#linearGradient3998"
       id="linearGradient4228"
       gradientUnits="userSpaceOnUse"
       gradientTransform="translate(0,1020.3622)"
       x1="5.75"
       y1="22.671875"
       x2="26.25"
       y2="22.671875" />
    <linearGradient
       inkscape:collect="always"
       xlink:href="#linearGradient4022"
       id="linearGradient4230"
       gradientUnits="userSpaceOnUse"
       gradientTransform="translate(0,1026.456)"
       x1="5.75"
       y1="22.671875"
       x2="26.25"
       y2="22.671875" />
    <filter
       inkscape:collect="always"
       id="filter4234"
       x="-0.080641141"
       width="1.1612823"
       y="-0.23440896"
       height="1.4688179">
      <feGaussianBlur
         inkscape:collect="always"
         stdDeviation="0.63800259"
         id="feGaussianBlur4236" />
    </filter>
    <linearGradient
       inkscape:collect="always"
       xlink:href="#linearGradient3963"
       id="linearGradient4254"
       gradientUnits="userSpaceOnUse"
       gradientTransform="translate(-4.9999997e-8,0.30335)"
       x1="5.7512663"
       y1="1036.0588"
       x2="26.248734"
       y2="1036.0588" />
    <radialGradient
       inkscape:collect="always"
       xlink:href="#linearGradient4108"
       id="radialGradient4256"
       gradientUnits="userSpaceOnUse"
       gradientTransform="matrix(1.6259222,0.37469599,-0.20408774,0.88559999,206.26989,112.40384)"
       cx="11.320943"
       cy="1045.4127"
       fx="11.320943"
       fy="1045.4127"
       r="10.248734" />
    <linearGradient
       inkscape:collect="always"
       xlink:href="#linearGradient3998"
       id="linearGradient4258"
       gradientUnits="userSpaceOnUse"
       gradientTransform="translate(0,1020.3622)"
       x1="5.75"
       y1="22.671875"
       x2="26.25"
       y2="22.671875" />
    <linearGradient
       inkscape:collect="always"
       xlink:href="#linearGradient4022"
       id="linearGradient4260"
       gradientUnits="userSpaceOnUse"
       gradientTransform="translate(0,1026.456)"
       x1="5.75"
       y1="22.671875"
       x2="26.25"
       y2="22.671875" />
    <linearGradient
       inkscape:collect="always"
       xlink:href="#linearGradient3963"
       id="linearGradient4262"
       gradientUnits="userSpaceOnUse"
       gradientTransform="translate(-4.9999997e-8,0.30335)"
       x1="5.7512663"
       y1="1036.0588"
       x2="26.248734"
       y2="1036.0588" />
    <radialGradient
       inkscape:collect="always"
       xlink:href="#linearGradient4108"
       id="radialGradient4264"
       gradientUnits="userSpaceOnUse"
       gradientTransform="matrix(1.6259222,0.37469599,-0.20408774,0.88559999,206.26989,112.40384)"
       cx="11.320943"
       cy="1045.4127"
       fx="11.320943"
       fy="1045.4127"
       r="10.248734" />
    <linearGradient
       inkscape:collect="always"
       xlink:href="#linearGradient3998"
       id="linearGradient4266"
       gradientUnits="userSpaceOnUse"
       gradientTransform="translate(0,1020.3622)"
       x1="5.75"
       y1="22.671875"
       x2="26.25"
       y2="22.671875" />
    <linearGradient
       inkscape:collect="always"
       xlink:href="#linearGradient4022"
       id="linearGradient4268"
       gradientUnits="userSpaceOnUse"
       gradientTransform="translate(0,1026.456)"
       x1="5.75"
       y1="22.671875"
       x2="26.25"
       y2="22.671875" />
  </defs>
  <sodipodi:namedview
     id="base"
     pagecolor="#ffffff"
     bordercolor="#666666"
     borderopacity="1.0"
     inkscape:pageopacity="0.0"
     inkscape:pageshadow="2"
     inkscape:zoom="11.313708"
     inkscape:cx="24.337506"
     inkscape:cy="19.201587"
     inkscape:document-units="px"
     inkscape:current-layer="layer1"
     showgrid="false"
     inkscape:window-width="1390"
     inkscape:window-height="941"
     inkscape:window-x="526"
     inkscape:window-y="112"
     inkscape:window-maximized="0"
     inkscape:snap-global="true">
    <inkscape:grid
       type="xygrid"
       id="grid2985"
       empspacing="5"
       visible="true"
       enabled="true"
       snapvisiblegridlinesonly="true" />
  </sodipodi:namedview>
  <metadata
     id="metadata7">
    <rdf:RDF>
      <cc:Work
         rdf:about="">
        <dc:format>image/svg+xml</dc:format>
        <dc:type
           rdf:resource="http://purl.org/dc/dcmitype/StillImage" />
        <dc:title></dc:title>
      </cc:Work>
    </rdf:RDF>
  </metadata>
  <g
     inkscape:label="Layer 1"
     inkscape:groupmode="layer"
     id="layer1"
     transform="translate(0,-1020.3622)">
    <path
       style="fill:#000000;fill-opacity:1;stroke:none;filter:url(#filter4174-0)"
       d="m 26.248734,1046.2923 c 0,1.9473 -4.588515,3.5257 -10.248734,3.5257 -5.660219,0 -10.2487337,-1.5784 -10.2487337,-3.5257 0,-1.9473 4.5885147,-3.5258 10.2487337,-3.5258 5.660219,0 10.248734,1.5785 10.248734,3.5258 z"
       id="path4170"
       inkscape:connector-curvature="0" />
    <g
       id="g4191"
       transform="translate(-0.0055243,-1.1112595)">
      <path
         style="fill:url(#linearGradient4262);fill-opacity:1;stroke:none"
         d="m 26.248734,1047.0589 c 0,1.9472 -4.588515,3.5258 -10.248734,3.5258 -5.660219,0 -10.2487339,-1.5786 -10.2487339,-3.5258 l 0,-6.0477 c 0,-1.9473 4.5885149,-3.5258 10.2487339,-3.5258 5.660219,0 10.248734,1.5785 10.248734,3.5258 z"
         id="path3933"
         inkscape:connector-curvature="0"
         sodipodi:nodetypes="sssssss" />
      <path
         style="fill:url(#radialGradient4264);fill-opacity:1;stroke:none"
         d="m 26.254258,1040.9165 c 0,1.9473 -4.588515,3.5257 -10.248734,3.5257 -5.660219,0 -10.2487334,-1.5784 -10.2487334,-3.5257 0,-1.9473 4.5885144,-3.5258 10.2487334,-3.5258 5.660219,0 10.248734,1.5785 10.248734,3.5258 z"
         id="path3935"
         inkscape:connector-curvature="0" />
      <path
         sodipodi:nodetypes="cssscsc"
         inkscape:connector-curvature="0"
         id="path3990"
         d="m 5.7617187,1040.9481 c -0.018263,0.086 -0.011719,0.3577 -0.011719,0.4454 0,1.541 4.5897813,3.255 10.2500003,3.255 5.660219,0 10.25,-1.5177 10.25,-3.255 0,-0.088 0.01463,-0.2082 -0.0036,-0.2942 -0.426909,1.9376 -4.849113,3.2942 -10.2464,3.2942 -5.397287,0 -9.8390227,-1.6237 -10.2382816,-3.4454 z"
         style="fill:url(#linearGradient4266);fill-opacity:1;stroke:none" />
      <path
         style="fill:url(#linearGradient4268);fill-opacity:1;stroke:none"
         d="m 5.7552466,1047.1155 c -0.018263,0.086 5.592e-4,0.1351 5.592e-4,0.2227 0,1.635 4.5839792,3.3102 10.2441982,3.3102 5.660219,0 10.257813,-1.855 10.257813,-3.294 0,-0.088 0.0065,-0.1484 -0.01172,-0.2344 -0.02361,1.7167 -4.848807,3.4297 -10.246094,3.4297 -5.397287,0 -10.1327567,-1.4689 -10.2447564,-3.4342 z"
         id="path4018"
         inkscape:connector-curvature="0"
         sodipodi:nodetypes="cssscsc" />
      <g
         clip-path="url(#clipPath4104)"
         id="g4046">
        <path
           d="M 16.28125,20.15625 10.4375,16.625 c 0,0 -3.5625,1 -2.46875,1.34375 1.09375,0.34375 8.3125,2.1875 8.3125,2.1875 z m 0.0625,0 -10.3125,1.625 1.46875,1 z m -0.15625,-0.0625 c -0.15625,0 1.15625,-3.625 1.15625,-3.625 L 22.1875,17.375 z m -0.03125,0.0625 4.9375,3.8125 4.28125,-2.03125 z m 0.125,0 -5.125,3.90625 4.40625,1 z"
           style="fill:#ffffff;fill-opacity:1;stroke:none;filter:url(#filter4062)"
           transform="translate(0,1020.3622)"
           id="path4044"
           inkscape:connector-curvature="0" />
      </g>
    </g>
    <path
       inkscape:connector-curvature="0"
       id="path4232"
       d="m 25.493953,1039.8448 c 0,1.8039 -4.250588,3.2661 -9.493952,3.2661 -5.243365,0 -9.4939519,-1.4622 -9.4939519,-3.2661 0,-1.8038 4.2505869,-3.2661 9.4939519,-3.2661 5.243364,0 9.493952,1.4623 9.493952,3.2661 z"
       style="opacity:0.6875;fill:#000000;fill-opacity:1;stroke:none;filter:url(#filter4234)" />
    <g
       id="g4210"
       transform="translate(-0.0055243,-8.5358807)">
      <path
         sodipodi:nodetypes="sssssss"
         inkscape:connector-curvature="0"
         id="path4212"
         d="m 26.248734,1047.0589 c 0,1.9472 -4.588515,3.5258 -10.248734,3.5258 -5.660219,0 -10.2487339,-1.5786 -10.2487339,-3.5258 l 0,-6.0477 c 0,-1.9473 4.5885149,-3.5258 10.2487339,-3.5258 5.660219,0 10.248734,1.5785 10.248734,3.5258 z"
         style="fill:url(#linearGradient4224);fill-opacity:1;stroke:none" />
      <path
         inkscape:connector-curvature="0"
         id="path4214"
         d="m 26.254258,1040.9165 c 0,1.9473 -4.588515,3.5257 -10.248734,3.5257 -5.660219,0 -10.2487334,-1.5784 -10.2487334,-3.5257 0,-1.9473 4.5885144,-3.5258 10.2487334,-3.5258 5.660219,0 10.248734,1.5785 10.248734,3.5258 z"
         style="fill:url(#radialGradient4226);fill-opacity:1;stroke:none" />
      <path
         style="fill:url(#linearGradient4228);fill-opacity:1;stroke:none"
         d="m 5.7617187,1040.9481 c -0.018263,0.086 -0.011719,0.3577 -0.011719,0.4454 0,1.541 4.5897813,3.255 10.2500003,3.255 5.660219,0 10.25,-1.5177 10.25,-3.255 0,-0.088 0.01463,-0.2082 -0.0036,-0.2942 -0.426909,1.9376 -4.849113,3.2942 -10.2464,3.2942 -5.397287,0 -9.8390227,-1.6237 -10.2382816,-3.4454 z"
         id="path4216"
         inkscape:connector-curvature="0"
         sodipodi:nodetypes="cssscsc" />
      <path
         sodipodi:nodetypes="cssscsc"
         inkscape:connector-curvature="0"
         id="path4218"
         d="m 5.7552466,1047.1155 c -0.018263,0.086 5.592e-4,0.1351 5.592e-4,0.2227 0,1.635 4.5839792,3.3102 10.2441982,3.3102 5.660219,0 10.257813,-1.855 10.257813,-3.294 0,-0.088 0.0065,-0.1484 -0.01172,-0.2344 -0.02361,1.7167 -4.848807,3.4297 -10.246094,3.4297 -5.397287,0 -10.1327567,-1.4689 -10.2447564,-3.4342 z"
         style="fill:url(#linearGradient4230);fill-opacity:1;stroke:none" />
      <g
         id="g4220"
         clip-path="url(#clipPath4104)">
        <path
           inkscape:connector-curvature="0"
           id="path4222"
           transform="translate(0,1020.3622)"
           style="fill:#ffffff;fill-opacity:1;stroke:none;filter:url(#filter4062)"
           d="M 16.28125,20.15625 10.4375,16.625 c 0,0 -3.5625,1 -2.46875,1.34375 1.09375,0.34375 8.3125,2.1875 8.3125,2.1875 z m 0.0625,0 -10.3125,1.625 1.46875,1 z m -0.15625,-0.0625 c -0.15625,0 1.15625,-3.625 1.15625,-3.625 L 22.1875,17.375 z m -0.03125,0.0625 4.9375,3.8125 4.28125,-2.03125 z m 0.125,0 -5.125,3.90625 4.40625,1 z" />
      </g>
    </g>
    <path
       style="opacity:0.6875;fill:#000000;fill-opacity:1;stroke:none;filter:url(#filter4234)"
       d="m 25.493953,1032.2434 c 0,1.8039 -4.250588,3.2661 -9.493952,3.2661 -5.243365,0 -9.4939519,-1.4622 -9.4939519,-3.2661 0,-1.8038 4.2505869,-3.2661 9.4939519,-3.2661 5.243364,0 9.493952,1.4623 9.493952,3.2661 z"
       id="path4238"
       inkscape:connector-curvature="0" />
    <g
       transform="translate(-0.0055243,-16.137278)"
       id="g4240">
      <path
         style="fill:url(#linearGradient4254);fill-opacity:1;stroke:none"
         d="m 26.248734,1047.0589 c 0,1.9472 -4.588515,3.5258 -10.248734,3.5258 -5.660219,0 -10.2487339,-1.5786 -10.2487339,-3.5258 l 0,-6.0477 c 0,-1.9473 4.5885149,-3.5258 10.2487339,-3.5258 5.660219,0 10.248734,1.5785 10.248734,3.5258 z"
         id="path4242"
         inkscape:connector-curvature="0"
         sodipodi:nodetypes="sssssss" />
      <path
         style="fill:url(#radialGradient4256);fill-opacity:1;stroke:none"
         d="m 26.254258,1040.9165 c 0,1.9473 -4.588515,3.5257 -10.248734,3.5257 -5.660219,0 -10.2487334,-1.5784 -10.2487334,-3.5257 0,-1.9473 4.5885144,-3.5258 10.2487334,-3.5258 5.660219,0 10.248734,1.5785 10.248734,3.5258 z"
         id="path4244"
         inkscape:connector-curvature="0" />
      <path
         sodipodi:nodetypes="cssscsc"
         inkscape:connector-curvature="0"
         id="path4246"
         d="m 5.7617187,1040.9481 c -0.018263,0.086 -0.011719,0.3577 -0.011719,0.4454 0,1.541 4.5897813,3.255 10.2500003,3.255 5.660219,0 10.25,-1.5177 10.25,-3.255 0,-0.088 0.01463,-0.2082 -0.0036,-0.2942 -0.426909,1.9376 -4.849113,3.2942 -10.2464,3.2942 -5.397287,0 -9.8390227,-1.6237 -10.2382816,-3.4454 z"
         style="fill:url(#linearGradient4258);fill-opacity:1;stroke:none" />
      <path
         style="fill:url(#linearGradient4260);fill-opacity:1;stroke:none"
         d="m 5.7552466,1047.1155 c -0.018263,0.086 5.592e-4,0.1351 5.592e-4,0.2227 0,1.635 4.5839792,3.3102 10.2441982,3.3102 5.660219,0 10.257813,-1.855 10.257813,-3.294 0,-0.088 0.0065,-0.1484 -0.01172,-0.2344 -0.02361,1.7167 -4.848807,3.4297 -10.246094,3.4297 -5.397287,0 -10.1327567,-1.4689 -10.2447564,-3.4342 z"
         id="path4248"
         inkscape:connector-curvature="0"
         sodipodi:nodetypes="cssscsc" />
      <g
         clip-path="url(#clipPath4104)"
         id="g4250">
        <path
           d="M 16.28125,20.15625 10.4375,16.625 c 0,0 -3.5625,1 -2.46875,1.34375 1.09375,0.34375 8.3125,2.1875 8.3125,2.1875 z m 0.0625,0 -10.3125,1.625 1.46875,1 z m -0.15625,-0.0625 c -0.15625,0 1.15625,-3.625 1.15625,-3.625 L 22.1875,17.375 z m -0.03125,0.0625 4.9375,3.8125 4.28125,-2.03125 z m 0.125,0 -5.125,3.90625 4.40625,1 z"
           style="fill:#ffffff;fill-opacity:1;stroke:none;filter:url(#filter4062)"
           transform="translate(0,1020.3622)"
           id="path4252"
           inkscape:connector-curvature="0" />
      </g>
    </g>
  </g>
  <g
     inkscape:groupmode="layer"
     id="layer2"
     inkscape:label="Layer" />
</svg>
