<?xml version="1.0" encoding="UTF-8" standalone="no"?>
<!-- Created with Inkscape (http://www.inkscape.org/) -->

<svg
   xmlns:dc="http://purl.org/dc/elements/1.1/"
   xmlns:cc="http://creativecommons.org/ns#"
   xmlns:rdf="http://www.w3.org/1999/02/22-rdf-syntax-ns#"
   xmlns:svg="http://www.w3.org/2000/svg"
   xmlns="http://www.w3.org/2000/svg"
   xmlns:sodipodi="http://sodipodi.sourceforge.net/DTD/sodipodi-0.dtd"
   xmlns:inkscape="http://www.inkscape.org/namespaces/inkscape"
   width="32px"
   height="32px"
   id="svg3850"
   version="1.1"
   inkscape:version="0.47 r22583"
   sodipodi:docname="key.svg">
  <defs
     id="defs3852">
    <inkscape:perspective
       sodipodi:type="inkscape:persp3d"
       inkscape:vp_x="0 : 16 : 1"
       inkscape:vp_y="0 : 1000 : 0"
       inkscape:vp_z="32 : 16 : 1"
       inkscape:persp3d-origin="16 : 10.666667 : 1"
       id="perspective3781" />
  </defs>
  <sodipodi:namedview
     id="base"
     pagecolor="#ffffff"
     bordercolor="#666666"
     borderopacity="1.0"
     inkscape:pageopacity="0.0"
     inkscape:pageshadow="2"
     inkscape:zoom="5.6568542"
     inkscape:cx="41.157285"
     inkscape:cy="15.155077"
     inkscape:current-layer="layer1"
     showgrid="false"
     inkscape:grid-bbox="true"
     inkscape:document-units="px"
     inkscape:window-width="948"
     inkscape:window-height="692"
     inkscape:window-x="0"
     inkscape:window-y="25"
     inkscape:window-maximized="0">
    <inkscape:grid
       type="xygrid"
       id="grid3858" />
  </sodipodi:namedview>
  <metadata
     id="metadata3855">
    <rdf:RDF>
      <cc:Work
         rdf:about="">
        <dc:format>image/svg+xml</dc:format>
        <dc:type
           rdf:resource="http://purl.org/dc/dcmitype/StillImage" />
        <dc:title />
      </cc:Work>
    </rdf:RDF>
  </metadata>
  <g
     id="layer1"
     inkscape:label="Layer 1"
     inkscape:groupmode="layer">
    <g
       id="g4309"
       transform="matrix(0.79012737,0.79012737,-0.79012737,0.79012737,19.074792,-15.415174)">
      <path
         id="path3785"
         d="m 10.125,15.03125 c -4.0760975,0 -7.375,3.298903 -7.375,7.375 0,4.076097 3.2989025,7.375 7.375,7.375 2.887236,0 5.381025,-1.64676 6.59375,-4.0625 l 0.125,0 1.28125,0 1.28125,0 1.28125,0 1.28125,0 1.25,-1.75 1.28125,1.75 1.28125,0 1.28125,-0.9375 1.28125,0.9375 1.28125,0 c 2.200046,0 5.6875,-2.698511 5.6875,-5 0.03455,-0.128951 -1.091829,-1.875 -2.109375,-1.875 l -16.609375,0 C 15.334413,16.575868 12.902965,15.03125 10.125,15.03125 z M 7.4375,19.625 c 1.5323757,0 2.78125,1.248874 2.78125,2.78125 0,1.532376 -1.2488743,2.78125 -2.78125,2.78125 -1.5323757,0 -2.78125,-1.248874 -2.78125,-2.78125 0,-1.532376 1.2488743,-2.78125 2.78125,-2.78125 z"
         style="opacity:0.77688527;fill:#ffe300;fill-opacity:1;stroke:#e8b900;stroke-width:1.0629921;stroke-linecap:round;stroke-linejoin:round;stroke-miterlimit:4;stroke-opacity:1;stroke-dasharray:none;stroke-dashoffset:0"
         sodipodi:nodetypes="csscccccccccccccccccsssc" />
      <rect
         rx="1.1875"
         ry="0.4375"
         y="20.9375"
         x="16.625"
         height="0.875"
         width="17.1875"
         id="rect3795"
         style="opacity:0.77688527;fill:#e8b900;fill-opacity:0.65811965;stroke:none" />
    </g>
  </g>
</svg>
