<?xml version="1.0" encoding="UTF-8" standalone="no"?>
<!-- Created with Inkscape (http://www.inkscape.org/) -->

<svg
   xmlns:dc="http://purl.org/dc/elements/1.1/"
   xmlns:cc="http://creativecommons.org/ns#"
   xmlns:rdf="http://www.w3.org/1999/02/22-rdf-syntax-ns#"
   xmlns:svg="http://www.w3.org/2000/svg"
   xmlns="http://www.w3.org/2000/svg"
   xmlns:xlink="http://www.w3.org/1999/xlink"
   xmlns:sodipodi="http://sodipodi.sourceforge.net/DTD/sodipodi-0.dtd"
   xmlns:inkscape="http://www.inkscape.org/namespaces/inkscape"
   width="32px"
   height="32px"
   id="svg4021"
   version="1.1"
   inkscape:version="0.48.1 r9760"
   sodipodi:docname="systable.svg">
  <sodipodi:namedview
     id="base"
     pagecolor="#ffffff"
     bordercolor="#666666"
     borderopacity="1.0"
     inkscape:pageopacity="0.0"
     inkscape:pageshadow="2"
     inkscape:zoom="8"
     inkscape:cx="19.607504"
     inkscape:cy="18.764328"
     inkscape:current-layer="g3015"
     showgrid="false"
     inkscape:grid-bbox="true"
     inkscape:document-units="px"
     inkscape:snap-global="true"
     inkscape:window-width="1299"
     inkscape:window-height="749"
     inkscape:window-x="0"
     inkscape:window-y="274"
     inkscape:window-maximized="0">
    <inkscape:grid
       snapvisiblegridlinesonly="true"
       enabled="true"
       visible="true"
       empspacing="5"
       id="grid4029"
       type="xygrid" />
  </sodipodi:namedview>
  <defs
     id="defs4023">
    <linearGradient
       id="linearGradient3840">
      <stop
         id="stop3842"
         offset="0"
         style="stop-color:#f6f7f5;stop-opacity:1;" />
      <stop
         style="stop-color:#c7c8c6;stop-opacity:1;"
         offset="0.38461539"
         id="stop3844" />
      <stop
         id="stop3846"
         offset="1"
         style="stop-color:#989a97;stop-opacity:1;" />
    </linearGradient>
    <linearGradient
       id="linearGradient3805">
      <stop
         style="stop-color:#f6f7f5;stop-opacity:1;"
         offset="0"
         id="stop3807" />
      <stop
         id="stop3836"
         offset="0.38461539"
         style="stop-color:#c7c8c6;stop-opacity:1;" />
      <stop
         style="stop-color:#989a97;stop-opacity:1;"
         offset="1"
         id="stop3838" />
    </linearGradient>
    <radialGradient
       inkscape:collect="always"
       xlink:href="#linearGradient3805"
       id="radialGradient3811"
       cx="-8.3316631"
       cy="-11.206131"
       fx="-8.3316631"
       fy="-11.206131"
       r="13.765089"
       gradientTransform="matrix(1.2247419,1.1108671,-0.67075986,0.73951935,-5.644149,6.3506736)"
       gradientUnits="userSpaceOnUse" />
    <radialGradient
       inkscape:collect="always"
       xlink:href="#linearGradient3805"
       id="radialGradient3819"
       gradientUnits="userSpaceOnUse"
       gradientTransform="matrix(1.2247419,1.1108671,-0.67075986,0.73951935,11.583425,25.744245)"
       cx="-8.3316631"
       cy="-11.206131"
       fx="-8.3316631"
       fy="-11.206131"
       r="13.765089" />
    <filter
       inkscape:collect="always"
       id="filter3828">
      <feGaussianBlur
         inkscape:collect="always"
         stdDeviation="0.268125"
         id="feGaussianBlur3830" />
    </filter>
    <radialGradient
       inkscape:collect="always"
       xlink:href="#linearGradient3840"
       id="radialGradient3834"
       gradientUnits="userSpaceOnUse"
       gradientTransform="matrix(1.2517069,1.3279642,-0.98862828,0.93185711,-10.533649,8.7627271)"
       cx="-8.3316631"
       cy="-11.206131"
       fx="-8.3316631"
       fy="-11.206131"
       r="13.765089" />
  </defs>
  <metadata
     id="metadata4026">
    <rdf:RDF>
      <cc:Work
         rdf:about="">
        <dc:format>image/svg+xml</dc:format>
        <dc:type
           rdf:resource="http://purl.org/dc/dcmitype/StillImage" />
        <dc:title />
      </cc:Work>
    </rdf:RDF>
  </metadata>
  <g
     inkscape:groupmode="layer"
     inkscape:label="Layer 1"
     id="layer1">
    <rect
       ry="0.75"
       rx="1"
       y="6"
       x="2"
       height="21"
       width="29"
       id="rect4605"
       style="fill:#0069bf;fill-opacity:0.94117647;stroke:none" />
    <rect
       y="7"
       x="3"
       height="5"
       width="13"
       id="rect4607"
       style="fill:#73a2d7;fill-opacity:1;stroke:none" />
    <rect
       y="13"
       x="3"
       height="6"
       width="13"
       id="rect4609"
       style="fill:#b1cae8;fill-opacity:1;stroke:none" />
    <rect
       style="fill:#b1cae8;fill-opacity:1;stroke:none"
       id="rect4611"
       width="13"
       height="6"
       x="17"
       y="13" />
    <rect
       style="fill:#b1cae8;fill-opacity:1;stroke:none"
       id="rect4613"
       width="13"
       height="6"
       x="3"
       y="20" />
    <rect
       y="20"
       x="17"
       height="6"
       width="13"
       id="rect4615"
       style="fill:#b1cae8;fill-opacity:1;stroke:none" />
    <rect
       style="fill:#73a2d7;fill-opacity:1;stroke:none"
       id="rect4621"
       width="13"
       height="5"
       x="17"
       y="7" />
    <g
       id="g3015"
       transform="translate(17.227574,19.393571)"
       inkscape:label="Gear8">
      <path
         id="path3822"
         d="m -2.2171623,-16.664409 -1.0625,2.84375 0.03125,0.1875 -3.78125,1.53125 -0.125,-0.125 -2.71875,-1.28125 -1.5312497,1.5 1.3125,2.7499997 0.1249997,0.09375 -1.5937497,3.78125 -0.15625,0 -2.875,1.03125 0,2.15625 2.875,1 0.15625,0 1.5937497,3.78125 -0.1249997,0.09375 -1.3125,2.75 1.5312497,1.5 2.71875,-1.25 0.125,-0.15625 3.78125,1.59375 -0.03125,0.125 1.0625,2.8750003 2.09375,0 1.0625,-2.8750003 -0.03125,-0.125 3.78125,-1.59375 0.125,0.15625 2.71875,1.25 1.53125,-1.5 -1.3125,-2.75 -0.125,-0.09375 1.59375,-3.78125 0.15625,0 2.8750003,-1 0,-2.15625 -2.8750003,-1.03125 -0.15625,0 -1.59375,-3.78125 0.125,-0.09375 1.3125,-2.7499997 -1.53125,-1.5 -2.71875,1.28125 -0.125,0.125 -3.78125,-1.53125 0.03125,-0.1875 -1.0625,-2.84375 -2.09375,0 z m 1.0625,10.8124997 c 1.415651,0 2.5625,1.146849 2.5625,2.5625 0,1.415651 -1.146849,2.5625 -2.5625,2.5625 -1.415651,0 -2.5625,-1.146849 -2.5625,-2.5625 0,-1.415651 1.146849,-2.5625 2.5625,-2.5625 z"
         style="fill:#000000;fill-opacity:1;stroke:none;filter:url(#filter3828)"
         inkscape:connector-curvature="0" />
      <path
         style="fill:url(#radialGradient3834);fill-opacity:1;stroke:#989a95;stroke-width:0.70364678;stroke-linecap:round;stroke-linejoin:round;stroke-miterlimit:4;stroke-opacity:1;stroke-dasharray:none"
         d="m -2.6234123,-17.195659 -1.0625,2.84375 0.03125,0.1875 -3.78125,1.53125 -0.125,-0.125 -2.7187497,-1.28125 -1.53125,1.5 1.3125,2.7499997 0.125,0.09375 -1.59375,3.78125 -0.15625,0 -2.875,1.03125 0,2.15625 2.875,1 0.15625,0 1.59375,3.78125 -0.125,0.09375 -1.3125,2.75 1.53125,1.5 2.7187497,-1.25 0.125,-0.15625 3.78125,1.59375 -0.03125,0.125 1.0625,2.875 2.09375,0 1.0625,-2.875 -0.03125,-0.125 3.78125,-1.59375 0.125,0.15625 2.71875,1.25 1.53125,-1.5 -1.3125,-2.75 -0.125,-0.09375 1.59375,-3.78125 0.15625,0 2.8750003,-1 0,-2.15625 -2.8750003,-1.03125 -0.15625,0 -1.59375,-3.78125 0.125,-0.09375 1.3125,-2.7499997 -1.53125,-1.5 -2.71875,1.28125 -0.125,0.125 -3.78125,-1.53125 0.03125,-0.1875 -1.0625,-2.84375 -2.09375,0 z m 1.0625,10.8124997 c 1.415651,0 2.5625,1.146849 2.5625,2.5625 0,1.415651 -1.146849,2.5625 -2.5625,2.5625 -1.415651,0 -2.5625,-1.146849 -2.5625,-2.5625 0,-1.415651 1.146849,-2.5625 2.5625,-2.5625 z"
         id="path3017"
         inkscape:connector-curvature="0" />
    </g>
  </g>
</svg>
