<?xml version="1.0" encoding="UTF-8" standalone="no"?>
<!-- Created with Inkscape (http://www.inkscape.org/) -->

<svg
   xmlns:dc="http://purl.org/dc/elements/1.1/"
   xmlns:cc="http://creativecommons.org/ns#"
   xmlns:rdf="http://www.w3.org/1999/02/22-rdf-syntax-ns#"
   xmlns:svg="http://www.w3.org/2000/svg"
   xmlns="http://www.w3.org/2000/svg"
   xmlns:sodipodi="http://sodipodi.sourceforge.net/DTD/sodipodi-0.dtd"
   xmlns:inkscape="http://www.inkscape.org/namespaces/inkscape"
   width="32px"
   height="32px"
   id="svg2985"
   version="1.1"
   inkscape:version="0.48.1 r9760"
   sodipodi:docname="unique.svg"
   inkscape:export-filename="/home/calle/Tools/kqb/res/unique.png"
   inkscape:export-xdpi="90"
   inkscape:export-ydpi="90">
  <defs
     id="defs2987" />
  <sodipodi:namedview
     id="base"
     pagecolor="#ffffff"
     bordercolor="#666666"
     borderopacity="1.0"
     inkscape:pageopacity="0.0"
     inkscape:pageshadow="2"
     inkscape:zoom="8"
     inkscape:cx="5.9838809"
     inkscape:cy="9.4390591"
     inkscape:current-layer="layer1"
     showgrid="true"
     inkscape:grid-bbox="true"
     inkscape:document-units="px"
     inkscape:window-width="1439"
     inkscape:window-height="968"
     inkscape:window-x="0"
     inkscape:window-y="35"
     inkscape:window-maximized="0">
    <inkscape:grid
       type="xygrid"
       id="grid2993" />
  </sodipodi:namedview>
  <metadata
     id="metadata2990">
    <rdf:RDF>
      <cc:Work
         rdf:about="">
        <dc:format>image/svg+xml</dc:format>
        <dc:type
           rdf:resource="http://purl.org/dc/dcmitype/StillImage" />
        <dc:title></dc:title>
      </cc:Work>
    </rdf:RDF>
  </metadata>
  <g
     id="layer1"
     inkscape:label="Layer 1"
     inkscape:groupmode="layer">
    <path
       sodipodi:type="inkscape:offset"
       inkscape:radius="0.90138781"
       inkscape:original="M 15.4375 0.375 L 15.4375 5.75 L 11.6875 1.96875 L 10.875 2.75 L 15.4375 7.28125 L 15.4375 15.03125 L 8.75 11.15625 L 7.09375 4.90625 L 6 5.21875 L 7.40625 10.375 L 2.75 7.71875 L 2.1875 8.6875 L 6.84375 11.375 L 1.6875 12.71875 L 1.96875 13.8125 L 8.15625 12.125 L 14.875 16 L 8.15625 19.875 L 1.96875 18.1875 L 1.6875 19.28125 L 6.84375 20.625 L 2.1875 23.3125 L 2.75 24.28125 L 7.40625 21.625 L 6 26.78125 L 7.09375 27.09375 L 8.75 20.84375 L 15.4375 16.96875 L 15.4375 24.71875 L 10.875 29.25 L 11.6875 30.03125 L 15.4375 26.25 L 15.4375 31.625 L 16.5625 31.625 L 16.5625 26.25 L 20.3125 30.03125 L 21.125 29.25 L 16.5625 24.71875 L 16.5625 16.96875 L 23.25 20.84375 L 24.90625 27.09375 L 26 26.78125 L 24.59375 21.625 L 29.25 24.28125 L 29.8125 23.3125 L 25.15625 20.625 L 30.3125 19.28125 L 30.03125 18.1875 L 23.84375 19.875 L 17.125 16 L 23.84375 12.125 L 30.03125 13.8125 L 30.3125 12.71875 L 25.15625 11.375 L 29.8125 8.6875 L 29.25 7.71875 L 24.59375 10.375 L 26 5.21875 L 24.90625 4.90625 L 23.25 11.15625 L 16.5625 15.03125 L 16.5625 7.28125 L 21.125 2.75 L 20.3125 1.96875 L 16.5625 5.75 L 16.5625 0.375 L 15.4375 0.375 z "
       style="font-size:medium;font-style:normal;font-variant:normal;font-weight:normal;font-stretch:normal;text-indent:0;text-align:start;text-decoration:none;line-height:normal;letter-spacing:normal;word-spacing:normal;text-transform:none;direction:ltr;block-progression:tb;writing-mode:lr-tb;text-anchor:start;baseline-shift:baseline;color:#000000;fill:#bad4fe;fill-opacity:1;stroke:#7bb6ff;stroke-width:0.6689896;stroke-linecap:round;stroke-linejoin:round;stroke-miterlimit:4;stroke-opacity:1;stroke-dasharray:none;marker:none;visibility:visible;display:inline;overflow:visible;enable-background:accumulate;font-family:Sans;-inkscape-font-specification:Sans"
       id="path3870"
       d="M 15.34375,-0.53125 A 0.90147795,0.90147795 0 0 0 14.53125,0.375 l 0,3.21875 -2.21875,-2.25 A 0.90147795,0.90147795 0 0 0 11.0625,1.3125 L 10.25,2.09375 a 0.90147795,0.90147795 0 0 0 0,1.28125 l 4.28125,4.25 0,5.84375 -5,-2.90625 -1.5625,-5.875 A 0.90147795,0.90147795 0 0 0 6.84375,4.03125 L 5.75,4.34375 a 0.90147795,0.90147795 0 0 0 -0.625,1.125 L 5.96875,8.53125 3.1875,6.9375 A 0.90147795,0.90147795 0 0 0 1.96875,7.28125 L 1.40625,8.25 A 0.90147795,0.90147795 0 0 0 1.75,9.46875 L 4.5,11.0625 1.46875,11.84375 A 0.90147795,0.90147795 0 0 0 0.8125,12.9375 l 0.28125,1.09375 a 0.90147795,0.90147795 0 0 0 1.125,0.65625 L 8.0625,13.09375 13.09375,16 8.0625,18.90625 2.21875,17.3125 a 0.90147795,0.90147795 0 0 0 -1.125,0.65625 L 0.8125,19.0625 a 0.90147795,0.90147795 0 0 0 0.65625,1.09375 L 4.5,20.9375 1.75,22.53125 A 0.90147795,0.90147795 0 0 0 1.40625,23.75 l 0.5625,0.96875 A 0.90147795,0.90147795 0 0 0 3.1875,25.0625 L 5.96875,23.46875 5.125,26.53125 a 0.90147795,0.90147795 0 0 0 0.625,1.125 l 1.09375,0.3125 a 0.90147795,0.90147795 0 0 0 1.125,-0.65625 l 1.5625,-5.875 5,-2.90625 0,5.84375 -4.28125,4.25 a 0.90147795,0.90147795 0 0 0 0,1.28125 l 0.8125,0.78125 a 0.90147795,0.90147795 0 0 0 1.25,-0.03125 l 2.21875,-2.25 0,3.21875 a 0.90147795,0.90147795 0 0 0 0.90625,0.90625 l 1.125,0 A 0.90147795,0.90147795 0 0 0 17.46875,31.625 l 0,-3.21875 2.21875,2.25 a 0.90147795,0.90147795 0 0 0 1.25,0.03125 L 21.75,29.90625 a 0.90147795,0.90147795 0 0 0 0,-1.28125 l -4.28125,-4.25 0,-5.84375 5,2.90625 1.5625,5.875 a 0.90147795,0.90147795 0 0 0 1.125,0.65625 L 26.25,27.65625 a 0.90147795,0.90147795 0 0 0 0.625,-1.125 l -0.84375,-3.0625 2.78125,1.59375 a 0.90147795,0.90147795 0 0 0 1.21875,-0.34375 L 30.59375,23.75 A 0.90147795,0.90147795 0 0 0 30.25,22.53125 L 27.5,20.9375 30.53125,20.15625 A 0.90147795,0.90147795 0 0 0 31.1875,19.0625 l -0.28125,-1.09375 a 0.90147795,0.90147795 0 0 0 -1.125,-0.65625 L 23.9375,18.90625 18.90625,16 23.9375,13.09375 29.78125,14.6875 a 0.90147795,0.90147795 0 0 0 1.125,-0.65625 L 31.1875,12.9375 A 0.90147795,0.90147795 0 0 0 30.53125,11.84375 L 27.5,11.0625 30.25,9.46875 A 0.90147795,0.90147795 0 0 0 30.59375,8.25 L 30.03125,7.28125 A 0.90147795,0.90147795 0 0 0 28.8125,6.9375 L 26.03125,8.53125 26.875,5.46875 a 0.90147795,0.90147795 0 0 0 -0.625,-1.125 l -1.09375,-0.3125 a 0.90147795,0.90147795 0 0 0 -1.125,0.65625 l -1.5625,5.875 -5,2.90625 0,-5.84375 4.28125,-4.25 a 0.90147795,0.90147795 0 0 0 0,-1.28125 L 20.9375,1.3125 a 0.90147795,0.90147795 0 0 0 -1.25,0.03125 l -2.21875,2.25 0,-3.21875 A 0.90147795,0.90147795 0 0 0 16.5625,-0.53125 l -1.125,0 a 0.90147795,0.90147795 0 0 0 -0.09375,0 z"
       transform="matrix(0.94370265,0,0,0.94370265,0.90075766,0.90072369)" />
  </g>
</svg>
