<?xml version="1.0" encoding="UTF-8" standalone="no"?>
<!-- Created with Inkscape (http://www.inkscape.org/) -->

<svg
   xmlns:dc="http://purl.org/dc/elements/1.1/"
   xmlns:cc="http://creativecommons.org/ns#"
   xmlns:rdf="http://www.w3.org/1999/02/22-rdf-syntax-ns#"
   xmlns:svg="http://www.w3.org/2000/svg"
   xmlns="http://www.w3.org/2000/svg"
   xmlns:sodipodi="http://sodipodi.sourceforge.net/DTD/sodipodi-0.dtd"
   xmlns:inkscape="http://www.inkscape.org/namespaces/inkscape"
   id="svg2830"
   sodipodi:version="0.32"
   inkscape:version="0.48.2 r9819"
   width="16"
   height="16"
   version="1.0"
   sodipodi:docname="sqlite.svg"
   inkscape:output_extension="org.inkscape.output.svg.inkscape"
   inkscape:export-filename="/home/calle/src/kquerybrowser/res/sqlite.png"
   inkscape:export-xdpi="90"
   inkscape:export-ydpi="90">
  <metadata
     id="metadata2836">
    <rdf:RDF>
      <cc:Work
         rdf:about="">
        <dc:format>image/svg+xml</dc:format>
        <dc:type
           rdf:resource="http://purl.org/dc/dcmitype/StillImage" />
        <dc:title></dc:title>
      </cc:Work>
    </rdf:RDF>
  </metadata>
  <defs
     id="defs2834">
    <inkscape:perspective
       sodipodi:type="inkscape:persp3d"
       inkscape:vp_x="0 : 0.5 : 1"
       inkscape:vp_y="0 : 1000 : 0"
       inkscape:vp_z="1 : 0.5 : 1"
       inkscape:persp3d-origin="0.5 : 0.33333333 : 1"
       id="perspective2838" />
  </defs>
  <sodipodi:namedview
     pagecolor="#ffffff"
     bordercolor="#666666"
     borderopacity="1"
     objecttolerance="10"
     gridtolerance="10"
     guidetolerance="10"
     inkscape:pageopacity="0"
     inkscape:pageshadow="2"
     inkscape:window-width="1440"
     inkscape:window-height="828"
     id="namedview2832"
     showgrid="true"
     inkscape:zoom="18.786984"
     inkscape:cx="-0.040107134"
     inkscape:cy="11.130387"
     inkscape:window-x="0"
     inkscape:window-y="42"
     inkscape:current-layer="svg2830"
     inkscape:window-maximized="0">
    <inkscape:grid
       type="xygrid"
       id="grid2868"
       empspacing="5"
       visible="true"
       enabled="true"
       snapvisiblegridlinesonly="true" />
  </sodipodi:namedview>
  <path
     sodipodi:type="inkscape:offset"
     inkscape:radius="2.5713003"
     inkscape:original="M 141.625 13.125 C 141.46106 13.130078 141.30842 13.228306 141.125 13.4375 C 140.65296 13.975864 140.51322 15.296463 140.84375 16.375 C 141.6221 18.914856 137.60701 25.070093 131.8125 30.21875 C 114.25173 45.822216 110.42942 49.566183 105.8125 55.59375 C 102.95887 59.319303 100.49122 62.942797 100.3125 63.625 C 99.703249 65.95074 101.28002 64.463538 112.03125 52.625 C 117.94471 46.113486 126.9832 37.270438 132.125 32.96875 C 139.4009 26.881646 141.6954 24.275903 142.46875 21.25 C 143.3846 17.66651 142.77258 13.089456 141.625 13.125 z M 124.875 13.875 C 117.71047 13.033804 103.8023 17.107405 99.78125 21.21875 C 98.204857 22.830542 97.043314 24.615031 97.21875 25.1875 C 97.419296 25.841903 99.702099 25.240595 103.375 23.5625 C 106.58803 22.094514 113.91718 19.446271 119.65625 17.6875 L 130.09375 14.5 L 124.875 13.875 z M 97.3125 29.1875 C 93.58126 28.210052 74.206099 42.077709 73.03125 46.5625 C 72.763502 47.584607 73.191701 47.442562 74.5625 46.0625 C 76.778163 43.831859 91.130517 34.91729 91.875 35.3125 C 92.153792 35.460503 89.999082 38.872825 87.09375 42.875 C 82.253981 49.541868 81.270061 52.73327 83.65625 54 C 84.154738 54.264626 85.246495 53.183461 86.09375 51.59375 C 86.941001 50.004029 90.383541 45.281079 93.71875 41.09375 C 99.488906 33.849349 100.62067 30.054118 97.3125 29.1875 z M 117.8125 29.59375 C 116.90836 29.113776 98.269079 43.698783 98.5625 44.65625 C 98.709707 45.136602 99.187956 45.414139 99.625 45.28125 C 101.05602 44.846181 118.3859 29.898145 117.8125 29.59375 z M 67.78125 50.25 C 66.408141 50.409295 64.230453 51.461146 61.53125 53.53125 C 57.020665 56.990565 47.471017 69.087629 48.71875 69.75 C 49.081705 69.942677 51.388715 68.143535 53.875 65.75 L 58.40625 61.375 L 56.75 67.625 C 55.835244 71.080237 55.594849 74.514859 56.21875 75.3125 C 58.085801 77.699503 58.896813 76.570309 61.40625 67.96875 C 62.726806 63.442243 65.122482 58.156439 66.75 56.21875 C 70.129947 52.194676 70.069766 49.984509 67.78125 50.25 z M 94.25 50.78125 C 92.805586 50.014476 80.300652 59.748254 69.90625 69.75 C 51.511055 87.450303 35.587048 108.25277 22.96875 131 C 16.894244 141.95061 16.592042 142.81484 17.875 147.0625 C 18.621476 149.53401 19.578783 151.86049 19.96875 152.21875 C 22.919072 154.92924 29.719824 146.03208 37.90625 128.8125 C 48.252049 107.05085 65.155598 83.804085 78.75 72.625 C 87.762393 65.213836 89.465647 62.784599 82.34375 67.46875 C 75.145491 72.203127 60.134681 87.105718 51.90625 97.71875 C 48.163445 102.54623 40.307752 115.65813 34.4375 126.875 C 28.567254 138.09186 23.225664 147.45302 22.5625 147.65625 C 21.899346 147.85948 21.02136 146.86409 20.59375 145.46875 C 19.098629 140.59 39.430431 109.0231 57.46875 88.25 C 61.471004 83.640956 71.5678 73.39914 79.875 65.5 C 88.1822 57.60086 94.650755 50.993998 94.25 50.78125 z M 104.15625 66.75 C 98.71984 67.11909 88.980103 70.130823 89.5625 72.03125 C 89.935804 73.24934 90.767609 73.221292 93.03125 72 C 94.754006 71.07054 96.156275 70.857001 96.34375 71.46875 C 96.52221 72.051086 95.283635 73.275769 93.59375 74.1875 C 89.805776 76.231208 82.25922 83.363721 79.4375 87.5625 C 78.282518 89.281135 77.965853 90.215522 78.75 89.65625 C 79.534147 89.096978 85.304546 84.96135 91.5625 80.4375 C 97.820456 75.91366 104.18578 71.508486 105.71875 70.65625 C 107.65868 69.577763 108.2535 68.595596 107.625 67.40625 C 107.30703 66.804529 105.96839 66.62697 104.15625 66.75 z M 44.78125 72.53125 C 43.385216 72.895051 41.306736 74.737136 38.59375 78.09375 C 34.430005 83.245295 24.100239 91.562512 20.53125 92.65625 C 17.850746 93.477707 17.348463 98.67688 19.71875 101.03125 C 20.641764 101.94806 22.683419 103.11687 24.25 103.625 C 27.452178 104.66361 28.492033 104.55568 28.875 103.09375 C 29.246595 101.67526 27.458183 100.38313 24.28125 99.78125 C 19.987397 98.967781 21.237965 96.167164 27.875 91.65625 C 31.205332 89.392764 35.898329 85.63661 38.3125 83.3125 L 42.6875 79.09375 L 41.71875 84.65625 C 40.807037 89.927157 41.341462 92.09194 43.375 91.46875 C 43.86952 91.317201 45.029035 87.483331 45.96875 82.96875 C 47.539924 75.420469 47.107974 71.924915 44.78125 72.53125 z M 98.46875 84.09375 L 93.65625 85.4375 C 87.184527 87.250459 76.023239 94.500077 66.625 103 C 57.205191 111.51942 54.780961 114.36863 56 115.4375 C 57.421716 116.68407 57.648533 116.52913 69.21875 105.71875 C 80.452833 95.222425 86.625926 90.431344 94.09375 86.4375 L 98.46875 84.09375 z M 37.78125 101.6875 C 36.589436 101.35704 33.950682 102.41219 32.15625 104.21875 C 31.200957 105.18049 30.773529 106.29713 31.21875 106.6875 C 32.374323 107.70072 38.36457 104.20901 38.40625 102.5 C 38.417007 102.05888 38.178521 101.79765 37.78125 101.6875 z M 53.1875 111.1875 C 51.841378 110.83486 48.340291 115.06111 48.78125 116.5 C 48.94959 117.04934 49.716759 117.30253 50.5 117.0625 C 52.390327 116.4832 54.637529 111.56735 53.1875 111.1875 z "
     style="fill:#7ea397"
     id="path4197"
     d="m 141.53125,10.5625 c -1.1402,0.03532 -1.95718,0.746609 -2.34375,1.1875 -0.8402,0.958249 -0.9763,1.815635 -1.0625,2.6875 -0.0862,0.871865 -0.0312,1.770068 0.25,2.6875 -0.0721,-0.235342 0.0397,0.172702 -0.21875,0.90625 -0.25845,0.733548 -0.79586,1.747712 -1.53125,2.875 -1.47077,2.254575 -3.79389,4.942741 -6.53125,7.375 -17.57495,15.616064 -21.59154,19.58661 -26.3125,25.75 -1.45395,1.898207 -2.81417,3.775226 -3.84375,5.28125 -0.514789,0.753012 -0.942907,1.413748 -1.28125,1.96875 -0.338343,0.555002 -0.572872,0.653516 -0.84375,1.6875 -0.102094,0.38973 -0.21318,0.735167 -0.1875,1.4375 0.0069,0.187412 0.203909,0.531622 0.28125,0.8125 -1.409418,0.342006 -2.822204,0.71225 -4.125,1.15625 -1.627857,0.554782 -3.08224,1.148163 -4.28125,1.875 -0.599505,0.363418 -1.162484,0.746149 -1.6875,1.375 -0.525016,0.628851 -1.113568,1.867916 -0.71875,3.15625 0.172524,0.562944 0.46557,1.248992 1.125,1.84375 0.02544,0.02295 0.06735,0.0092 0.09375,0.03125 -4.101763,3.216115 -8.589141,7.881341 -11,11.46875 -0.63714,0.948076 -1.059454,1.579698 -1.375,2.53125 -0.07889,0.237888 -0.182395,0.482345 -0.1875,1 -0.0044,0.44423 0.285076,1.368708 1.03125,2.03125 -3.977459,2.798972 -8.027025,5.926078 -11.875,9.40625 -4.608272,4.16779 -7.456775,6.8965 -9.28125,9 -0.407683,-0.60813 -1.036219,-1.21108 -1.78125,-1.40625 -0.668495,-0.17512 -1.104668,-0.0638 -1.5625,0.0313 C 61.299728,94.659678 71.644185,81.804611 80.375,74.625 c 2.275636,-1.871324 4.104262,-3.446442 5.46875,-4.6875 1.364488,-1.241058 2.209614,-2.015895 2.875,-2.96875 0.166346,-0.238214 0.330226,-0.442376 0.5,-1.0625 0.08489,-0.310062 0.211453,-0.77294 0.03125,-1.4375 -0.180203,-0.66456 -0.822841,-1.401464 -1.40625,-1.6875 -0.528008,-0.258874 -0.889007,-0.312346 -1.1875,-0.3125 1.883134,-1.84305 4.116691,-3.990949 5.5,-5.40625 1.319896,-1.350421 2.387924,-2.474746 3.125,-3.3125 0.368538,-0.418877 0.650299,-0.735748 0.90625,-1.09375 0.127976,-0.179001 0.237514,-0.336783 0.40625,-0.71875 0.08437,-0.190983 0.227083,-0.443022 0.25,-1.03125 0.02292,-0.588228 -0.43765,-1.908641 -1.375,-2.40625 -0.927073,-0.492141 -1.595165,-0.366419 -2.0625,-0.28125 -0.467335,0.08517 -0.828124,0.222545 -1.1875,0.375 -0.494796,0.209904 -1.028939,0.563598 -1.5625,0.875 0.19603,-0.276311 0.19517,-0.334669 0.40625,-0.625 1.357476,-1.867153 3.013558,-4.093863 4.65625,-6.15625 2.970367,-3.729281 4.85903,-6.538567 5.65625,-9.1875 0.39861,-1.324467 0.57245,-2.761298 -0.0625,-4.15625 -0.31124,-0.683773 -0.83031,-1.25091 -1.40625,-1.6875 1.27132,-0.355129 2.71696,-0.921079 4.53125,-1.75 2.93187,-1.339528 10.33467,-4.023405 15.96875,-5.75 l 10.4375,-3.1875 a 2.5715574,2.5715574 0 0 0 -0.4375,-5.03125 l -5.21875,-0.625 c -4.25107,-0.499123 -9.64659,0.412288 -14.75,1.90625 -5.10341,1.493962 -9.75012,3.375871 -12.5,6.1875 -0.899132,0.919322 -1.661373,1.871885 -2.25,2.78125 -0.294314,0.454682 -0.545673,0.893845 -0.75,1.40625 -0.204327,0.512405 -0.573916,1.082827 -0.1875,2.34375 0.112632,0.367529 0.46673,0.520975 0.71875,0.8125 -0.343357,0.08908 -0.683077,0.165969 -1.03125,0.28125 -1.096311,0.362991 -2.271908,0.904556 -3.53125,1.5625 -2.518683,1.315888 -5.381987,3.148488 -8.1875,5.15625 -2.805513,2.007762 -5.529162,4.160826 -7.6875,6.1875 -2.158338,2.026674 -3.849565,3.485822 -4.5,5.96875 -0.105811,0.403927 -0.291351,0.708139 -0.0625,1.75 0.114425,0.520931 0.579131,1.448184 1.46875,1.875 0.889619,0.426816 1.619932,0.259775 2.03125,0.125 0.822636,-0.26955 1.044379,-0.535811 1.375,-0.8125 0.330621,-0.276689 0.656924,-0.591894 1.03125,-0.96875 0.179243,-0.180455 1.56273,-1.261877 3.1875,-2.375 1.387209,-0.950372 3.079844,-2.043291 4.75,-3.09375 -2.026048,2.870083 -3.444335,5.209717 -4.09375,7.3125 -0.365981,1.185034 -0.55119,2.395115 -0.1875,3.65625 0.293202,1.01671 1.028603,1.835468 1.84375,2.4375 -4.307699,3.462992 -9.159785,7.676934 -13.75,12.09375 -2.037502,1.960534 -3.930168,4.09102 -5.90625,6.125 0.498161,-1.393373 0.998883,-3.090504 1.65625,-5.34375 1.237123,-4.240522 3.898153,-9.686692 4.84375,-10.8125 1.843917,-2.195318 2.971653,-3.856304 3.21875,-5.9375 0.123548,-1.040598 -0.172387,-2.519547 -1.21875,-3.40625 C 69.672387,47.644547 68.479072,47.573918 67.5,47.6875 c -2.351049,0.272746 -4.635863,1.591936 -7.53125,3.8125 -2.708451,2.077199 -6.153961,5.950415 -9.03125,9.59375 -1.438645,1.821667 -2.680607,3.538946 -3.5625,4.96875 -0.440946,0.714902 -0.79947,1.330646 -1.0625,2.03125 -0.131515,0.350302 -0.268576,0.707096 -0.28125,1.34375 -0.0031,0.158235 0.104527,0.431875 0.15625,0.65625 -0.718507,-0.17868 -1.458786,-0.219825 -2.0625,-0.0625 -2.842986,0.740871 -4.703776,2.939238 -7.53125,6.4375 -1.853673,2.293436 -5.427963,5.659728 -8.875,8.4375 -1.723519,1.388886 -3.432697,2.641173 -4.875,3.59375 -1.442303,0.952577 -2.710911,1.579753 -3.0625,1.6875 -2.750261,0.842834 -3.897941,3.499527 -4.125,5.84375 -0.227059,2.344223 0.329007,4.90441 2.25,6.8125 1.492839,1.48281 3.518832,2.55587 5.5625,3.21875 1.70365,0.55257 2.892498,0.95558 4.4375,0.78125 0.197198,-0.0222 0.383865,-0.22337 0.59375,-0.28125 0.06725,0.65157 0.367165,1.48023 1.03125,2.0625 0.833683,0.73098 1.708673,0.81677 2.34375,0.8125 0.635077,-0.004 1.142938,-0.1314 1.65625,-0.28125 -4.542427,6.67931 -8.880979,13.50633 -12.8125,20.59375 -3.042398,5.48458 -4.679738,8.4269 -5.5,11 -0.820262,2.5731 -0.484092,4.83897 0.1875,7.0625 0.396636,1.31322 0.862402,2.56652 1.28125,3.59375 0.209424,0.51361 0.387648,0.96991 0.59375,1.375 0.206102,0.40509 0.204963,0.67077 0.9375,1.34375 0.808051,0.74236 2.029729,1.19585 3.125,1.15625 1.095271,-0.0396 2.036658,-0.45596 2.875,-0.96875 1.676683,-1.02558 3.133154,-2.5979 4.78125,-4.75 3.296192,-4.30419 7.080722,-10.95219 11.21875,-19.65625 1.894973,-3.98594 4.207008,-8.01674 6.5,-12.03125 0.481489,0.80473 1.168007,1.42427 1.875,1.65625 0.897005,0.29433 1.797602,0.26314 2.65625,0 1.310189,-0.40151 2.024188,-1.17395 2.65625,-1.9375 0.113145,-0.13668 0.176217,-0.29611 0.28125,-0.4375 0.05527,0.0569 0.06814,0.16889 0.125,0.21875 0.400766,0.35139 1.400199,1.18421 2.78125,1.15625 1.381051,-0.028 2.224707,-0.61378 3.21875,-1.34375 1.988086,-1.45994 4.869495,-4.18702 10.65625,-9.59375 11.175946,-10.442006 17.110395,-15.006552 24.34375,-18.875 l 4.375,-2.34375 a 2.5715574,2.5715574 0 0 0 -1.90625,-4.75 l -4.8125,1.34375 c -0.348661,0.09767 -0.792494,0.348385 -1.15625,0.46875 0.59875,-0.432212 0.637369,-0.463382 1.25,-0.90625 3.114669,-2.251576 6.266145,-4.489722 8.8125,-6.25 2.54636,-1.760278 4.65071,-3.128696 5.09375,-3.375 1.16214,-0.646083 2.16008,-1.321506 2.875,-2.53125 0.71492,-1.209744 0.66991,-3.006808 0.0625,-4.15625 -0.80658,-1.526353 -2.09475,-1.77507 -3.03125,-1.9375 -0.69475,-0.1205 -1.42156,-0.08424 -2.15625,-0.0625 1.88047,-1.846484 4.37598,-4.542463 9.21875,-9.875 5.81573,-6.403897 14.89469,-15.26581 19.84375,-19.40625 3.67442,-3.074062 6.12597,-5.298862 7.875,-7.28125 1.74903,-1.982388 2.81861,-3.848778 3.3125,-5.78125 0.55698,-2.179328 0.62581,-4.428031 0.40625,-6.34375 -0.10978,-0.957859 -0.26135,-1.802303 -0.625,-2.65625 -0.18182,-0.426974 -0.41795,-0.872133 -0.875,-1.34375 -0.45705,-0.471617 -1.34337,-0.999735 -2.34375,-0.96875 z M 117.8125,26.96875 c -0.30361,-0.0013 -0.52365,0.08906 -0.6875,0.125 -0.3277,0.07187 -0.53433,0.138793 -0.71875,0.21875 -0.36884,0.159914 -0.6502,0.322918 -1,0.53125 -0.69959,0.416664 -1.53572,0.978255 -2.5,1.65625 -1.92856,1.35599 -4.35568,3.189 -6.75,5.0625 -2.39432,1.8735 -4.75658,3.770772 -6.53125,5.3125 -0.887337,0.770864 -1.617827,1.454327 -2.1875,2.03125 -0.284836,0.288461 -0.536764,0.552112 -0.78125,0.875 -0.122243,0.161444 -0.224798,0.311751 -0.375,0.625 -0.150202,0.313249 -0.542975,0.840043 -0.1875,2 0.523048,1.706761 2.39134,2.918402 4.28125,2.34375 0.72411,-0.220148 0.8166,-0.382419 1.09375,-0.5625 0.27715,-0.180081 0.5759,-0.380655 0.90625,-0.625 0.6607,-0.488689 1.48099,-1.12779 2.40625,-1.875 1.85052,-1.494421 4.13842,-3.414585 6.375,-5.34375 2.23658,-1.929165 4.39574,-3.857703 6,-5.34375 0.80213,-0.743023 1.44748,-1.365302 1.9375,-1.875 0.24501,-0.254849 0.46831,-0.460936 0.6875,-0.75 0.1096,-0.144532 0.22618,-0.269018 0.40625,-0.6875 0.09,-0.209241 0.23762,-0.513994 0.21875,-1.15625 -0.0189,-0.642256 -0.58878,-1.80138 -1.375,-2.21875 -0.51384,-0.272777 -0.91514,-0.342406 -1.21875,-0.34375 z M 53.875,69.1875 c -0.198492,1.056059 -0.466694,2.16327 -0.53125,3.09375 -0.05542,0.798748 -0.07396,1.540809 0,2.25 0.07396,0.709191 0.08669,1.407113 0.84375,2.375 0.583031,0.745398 1.137978,1.585316 2.65625,1.96875 0.255857,0.06462 0.524889,-0.08737 0.8125,-0.09375 -4.120569,4.466319 -8.089794,9.074197 -11.90625,13.84375 0.203115,-0.321883 0.340343,-0.605895 0.46875,-0.90625 0.256815,-0.60071 0.49908,-1.300436 0.75,-2.125 C 47.470589,87.944621 48.016738,85.82169 48.5,83.5 c 0.811304,-3.89769 1.176594,-6.767824 0.90625,-9.09375 -0.08049,-0.692537 -0.271472,-1.375145 -0.5625,-2.03125 0.424517,-0.01188 0.732328,-0.14795 0.9375,-0.21875 0.372045,-0.128383 0.604658,-0.266488 0.84375,-0.40625 0.478185,-0.279525 0.949352,-0.596415 1.46875,-1 0.517137,-0.401828 1.181193,-1.035365 1.78125,-1.5625 z m -14.9375,16.875 c -0.241241,1.814037 -0.344743,3.399758 0,4.8125 0.230558,0.944816 0.743339,2.042855 1.84375,2.71875 1.100411,0.675895 2.40646,0.630988 3.34375,0.34375 0.554586,-0.169956 0.778156,-0.371519 1,-0.5625 -1.765073,2.222769 -3.491656,4.466835 -5.1875,6.75 -0.467199,-0.441855 -0.99749,-0.775585 -1.46875,-0.90625 -1.745779,-0.484061 -2.979212,-0.01614 -4.3125,0.5625 -1.008778,0.4378 -1.937026,1.22581 -2.875,2 -0.316415,-1.13529 -1.050889,-2.155417 -1.875,-2.75 -1.194462,-0.861785 -2.641487,-1.341112 -4.3125,-1.6875 0.712503,-0.781429 1.924793,-2.003394 4.21875,-3.5625 3.123407,-2.122848 6.930194,-5.264676 9.625,-7.71875 z"
     transform="matrix(0.10934987,0,0,0.10934987,-0.76042382,-1.0675565)" />
  <path
     style="fill:#000000"
     d=""
     id="path2842"
     inkscape:connector-curvature="0" />
</svg>
